<svg xmlns="http://www.w3.org/2000/svg" viewBox="0 0 47.03 47.03"><defs><style>.cls-1{fill:#231815;}</style></defs><title>gear1</title><g id="レイヤー_2" data-name="レイヤー 2"><g id="レイヤー_1-2" data-name="レイヤー 1"><path class="cls-1" d="M46.74,21.35l-4.34-.08a.19.19,0,0,1-.19-.17,19,19,0,0,0-1.3-4.84A.19.19,0,0,1,41,16l3.72-2.24a.31.31,0,0,0,.1-.41L43,10.14a.32.32,0,0,0-.26-.15.28.28,0,0,0-.15,0l-3.79,2.1a.23.23,0,0,1-.26-.05A19.14,19.14,0,0,0,35,8.54a.21.21,0,0,1-.05-.26L37,4.49a.3.3,0,0,0-.11-.41L33.65,2.22a.23.23,0,0,0-.14,0,.3.3,0,0,0-.26.14L31,6a.19.19,0,0,1-.17.09h-.07a18.55,18.55,0,0,0-4.84-1.3.19.19,0,0,1-.17-.19L25.68.29a.3.3,0,0,0-.3-.29H21.65a.3.3,0,0,0-.3.29l-.08,4.34a.19.19,0,0,1-.17.19,18.37,18.37,0,0,0-4.83,1.3h-.08A.19.19,0,0,1,16,6L13.78,2.32a.31.31,0,0,0-.26-.14.23.23,0,0,0-.14,0L10.14,4.08a.3.3,0,0,0-.11.41l2.1,3.79a.21.21,0,0,1-.05.26,18.84,18.84,0,0,0-3.54,3.54.2.2,0,0,1-.16.07.13.13,0,0,1-.09,0L4.49,10a.28.28,0,0,0-.15,0,.31.31,0,0,0-.26.15L2.22,13.37a.3.3,0,0,0,.1.41L6,16a.2.2,0,0,1,.08.24,18.55,18.55,0,0,0-1.3,4.84.19.19,0,0,1-.19.17l-4.34.08a.3.3,0,0,0-.29.3v3.73a.3.3,0,0,0,.29.3l4.34.08a.19.19,0,0,1,.19.17,18.37,18.37,0,0,0,1.3,4.83A.21.21,0,0,1,6,31L2.32,33.25a.29.29,0,0,0-.1.41l1.86,3.23a.31.31,0,0,0,.26.15.42.42,0,0,0,.15,0l3.8-2.1a.13.13,0,0,1,.09,0,.2.2,0,0,1,.16.07,19.14,19.14,0,0,0,3.54,3.54.21.21,0,0,1,.05.26L10,42.54a.31.31,0,0,0,.11.41l3.24,1.86a.23.23,0,0,0,.14,0,.31.31,0,0,0,.26-.14L16,41a.19.19,0,0,1,.17-.09h.07a18.55,18.55,0,0,0,4.84,1.3.19.19,0,0,1,.17.19l.08,4.34a.3.3,0,0,0,.3.29h3.73a.3.3,0,0,0,.3-.29l.08-4.34a.19.19,0,0,1,.17-.19,18.55,18.55,0,0,0,4.84-1.3h.07A.2.2,0,0,1,31,41l2.24,3.72a.3.3,0,0,0,.26.14.23.23,0,0,0,.14,0L36.89,43a.31.31,0,0,0,.11-.41l-2.1-3.8a.2.2,0,0,1,.05-.25A19.14,19.14,0,0,0,38.49,35a.23.23,0,0,1,.26-.05L42.54,37a.42.42,0,0,0,.15,0,.32.32,0,0,0,.26-.15l1.86-3.24a.29.29,0,0,0-.1-.4L41,31a.2.2,0,0,1-.08-.25,18.77,18.77,0,0,0,1.3-4.83.19.19,0,0,1,.19-.17l4.34-.08a.3.3,0,0,0,.29-.3V21.65A.3.3,0,0,0,46.74,21.35ZM24.93,8.76a14.8,14.8,0,0,1,12.21,9,.86.86,0,0,1-.6.66l-10.4,3a1.36,1.36,0,0,1-.69,0,1.32,1.32,0,0,1-.53-1l-.41-10.8A.88.88,0,0,1,24.93,8.76Zm.27,14.76a1.69,1.69,0,1,1-1.69-1.69A1.68,1.68,0,0,1,25.2,23.52ZM13.05,13a14.71,14.71,0,0,1,9.19-4.28.85.85,0,0,1,.44.77l-.4,10.8a1.31,1.31,0,0,1-.23.66,1.37,1.37,0,0,1-1.11.2l-10.4-3a.85.85,0,0,1-.6-.63A14.82,14.82,0,0,1,13.05,13Zm.66,21.54L13.05,34a14.81,14.81,0,0,1-4-13.8A.85.85,0,0,1,10,20l10.15,3.72a1.38,1.38,0,0,1,.56.42,1.36,1.36,0,0,1-.16,1.13l-6,9A.85.85,0,0,1,13.71,34.57ZM31,36.24a14.77,14.77,0,0,1-15.15-.08.87.87,0,0,1,.1-.88l6.67-8.51a1.41,1.41,0,0,1,.57-.39,1.36,1.36,0,0,1,1,.49l6.67,8.51A.88.88,0,0,1,31,36.24ZM34,34c-.25.25-.51.49-.77.72a.86.86,0,0,1-.81-.37l-6-9a1.39,1.39,0,0,1-.2-.66,1.36,1.36,0,0,1,.79-.82l10.15-3.72a.87.87,0,0,1,.85.16A14.82,14.82,0,0,1,34,34Z"/></g></g></svg>