<svg xmlns="http://www.w3.org/2000/svg" viewBox="0 0 47.03 47.03"><defs><style>.cls-1{fill:#231815;}</style></defs><title>gear3</title><g id="レイヤー_2" data-name="レイヤー 2"><g id="レイヤー_1-2" data-name="レイヤー 1"><path class="cls-1" d="M46.74,21.35l-4.34-.08a.19.19,0,0,1-.19-.17,19,19,0,0,0-1.3-4.84A.19.19,0,0,1,41,16l3.72-2.24a.31.31,0,0,0,.1-.41L43,10.14a.32.32,0,0,0-.26-.15.28.28,0,0,0-.15,0l-3.79,2.1a.23.23,0,0,1-.26-.05A19.14,19.14,0,0,0,35,8.54a.21.21,0,0,1-.05-.26L37,4.49a.31.31,0,0,0-.11-.41L33.65,2.22a.23.23,0,0,0-.14,0,.3.3,0,0,0-.26.14L31,6a.19.19,0,0,1-.17.09h-.07a18.55,18.55,0,0,0-4.84-1.3.19.19,0,0,1-.17-.19L25.68.29a.3.3,0,0,0-.3-.29H21.65a.3.3,0,0,0-.3.29l-.08,4.34a.19.19,0,0,1-.17.19,18.37,18.37,0,0,0-4.83,1.3h-.08A.19.19,0,0,1,16,6L13.78,2.32a.31.31,0,0,0-.26-.14.23.23,0,0,0-.14,0L10.14,4.08a.31.31,0,0,0-.11.41l2.1,3.79a.21.21,0,0,1-.05.26,18.84,18.84,0,0,0-3.54,3.54.2.2,0,0,1-.16.07.13.13,0,0,1-.09,0L4.49,10a.28.28,0,0,0-.15,0,.31.31,0,0,0-.26.15L2.22,13.37a.3.3,0,0,0,.1.41L6,16a.2.2,0,0,1,.08.24,18.55,18.55,0,0,0-1.3,4.84.19.19,0,0,1-.19.17l-4.34.08a.3.3,0,0,0-.29.3v3.73a.3.3,0,0,0,.29.3l4.34.08a.19.19,0,0,1,.19.17,18.65,18.65,0,0,0,1.3,4.84A.2.2,0,0,1,6,31L2.32,33.25a.29.29,0,0,0-.1.41l1.86,3.23a.31.31,0,0,0,.26.15.42.42,0,0,0,.15,0l3.8-2.1a.13.13,0,0,1,.09,0,.2.2,0,0,1,.16.07,18.84,18.84,0,0,0,3.54,3.54.21.21,0,0,1,.05.26L10,42.55a.29.29,0,0,0,.11.4l3.24,1.86a.23.23,0,0,0,.14,0,.31.31,0,0,0,.26-.14L16,41a.19.19,0,0,1,.17-.09h.07a18.55,18.55,0,0,0,4.84,1.3.19.19,0,0,1,.17.19l.08,4.34a.3.3,0,0,0,.3.29h3.73a.3.3,0,0,0,.3-.29l.08-4.34a.19.19,0,0,1,.17-.19,18.55,18.55,0,0,0,4.84-1.3h.07A.2.2,0,0,1,31,41l2.24,3.72a.3.3,0,0,0,.26.14.23.23,0,0,0,.14,0L36.89,43a.3.3,0,0,0,.11-.41l-2.1-3.79a.21.21,0,0,1,.05-.26A19.14,19.14,0,0,0,38.49,35a.23.23,0,0,1,.26-.05L42.54,37a.42.42,0,0,0,.15,0,.32.32,0,0,0,.26-.15l1.86-3.24a.3.3,0,0,0-.1-.4L41,31a.19.19,0,0,1-.08-.24,19,19,0,0,0,1.3-4.84.19.19,0,0,1,.19-.17l4.34-.08a.3.3,0,0,0,.29-.3V21.65A.3.3,0,0,0,46.74,21.35ZM23.51,26.29a2.78,2.78,0,1,1,2.78-2.77A2.77,2.77,0,0,1,23.51,26.29Z"/></g></g></svg>