<svg xmlns="http://www.w3.org/2000/svg" viewBox="0 0 500 500"><defs><style>.cls-1{fill:#fff;}</style></defs><title>akamatsu</title><g id="レイヤー_2" data-name="レイヤー 2"><g id="レイヤー_2-2" data-name="レイヤー 2"><circle class="cls-1" cx="250" cy="250" r="250"/><path d="M250,17a233.06,233.06,0,0,1,90.69,447.68A233.06,233.06,0,0,1,159.31,35.31,231.52,231.52,0,0,1,250,17m0-17C111.93,0,0,111.93,0,250S111.93,500,250,500,500,388.07,500,250,388.07,0,250,0Z"/><polygon points="278 188 278 122 443 122 443 116 278 116 278 69 221 69 221 116 51 116 51 122 221 122 221 188 11 188 11 194 151 194 151 469 208 419 208 194 286 194 286 470 343 470 343 194 483 194 483 188 278 188"/><polygon points="53 254 53 363 110 333 110 254 53 254"/><rect x="387" y="254" width="57" height="109"/></g></g></svg>