<svg xmlns="http://www.w3.org/2000/svg" viewBox="0 0 500 500"><defs><style>.cls-1,.cls-2{fill:#fff;}.cls-2{stroke:#000;stroke-miterlimit:10;stroke-width:6px;}</style></defs><title>logo</title><g id="レイヤー_2" data-name="レイヤー 2"><g id="レイヤー_1-2" data-name="レイヤー 1"><g id="logo"><circle class="cls-1" cx="250" cy="250" r="250"/><path d="M250,17a233.06,233.06,0,0,1,90.69,447.68A233.06,233.06,0,0,1,159.31,35.31,231.52,231.52,0,0,1,250,17m0-17C111.93,0,0,111.93,0,250S111.93,500,250,500,500,388.07,500,250,388.07,0,250,0Z"/><path d="M153.88,338.54s-9,22.36-9,46.83c0,11.4-1.89,12-5.58,12.05-3.36,0-5.43-3.52-5.43-14.25S138.37,351.62,153.88,338.54Z"/><polygon points="221 185 64 185 64 191 443 191 443 185 278 185 278 122 455 122 455 116 278 116 278 69 221 62 221 116 52 116 52 122 221 122 221 185"/><polygon points="347 437 177 437 177 284 120 277 120 448 177 448 177 443 347 443 347 448 404 448 404 367 347 387 347 437"/><polygon points="415 212.42 415 220 92 220 92 219 36 219 36 289 92 289 92 226 415 226 415 281.61 471 288.61 471 219.42 415 212.42"/><path class="cls-2" d="M341,253a10.69,10.69,0,0,0-8.37-7c-8.87-1.43-27.77-1.36-63,11-35.41,12.4-63.75,48.09-79.76,53.7-10.29,3.6-21.32,4.52-27.88,4.71a4.28,4.28,0,0,0-3.91,5.7l3.17,9.05,6.18,17.65a4.28,4.28,0,0,0,6.61,2c5.25-3.94,14.43-10.11,24.73-13.71,16-5.61,60.43,4.61,95.83-7.79,35.23-12.34,50-24.07,56.08-30.72a10.69,10.69,0,0,0,2.15-10.72l-7.43-21.21Z"/></g></g></g></svg>