<svg xmlns="http://www.w3.org/2000/svg" viewBox="0 0 245.92 215.92"><defs><style>.cls-1,.cls-2,.cls-3{fill:#fff;stroke:#000;stroke-width:2.83px;}.cls-2{stroke-linecap:round;stroke-linejoin:round;}.cls-3{stroke-miterlimit:10;}</style></defs><title>step4_1</title><g id="レイヤー_2" data-name="レイヤー 2"><g id="レイヤー_2-2" data-name="レイヤー 2"><path class="cls-1" d="M23.92,1.42A22.5,22.5,0,0,1,43.49,35c1.92,4.32,2.59,10,2.82,12.94-.65-3-4.15-5.59-7.26-7.38A22.5,22.5,0,1,1,23.92,1.42Z"/><path class="cls-2" d="M46.31,47"/><path class="cls-1" d="M62.88,83.06S38,159.07,46.42,198.41C53.92,214.5,71.83,214.5,79,214.5s25.48-5.36,25.48-18.33-26.06-81.66-20-108.48S62.88,83.06,62.88,83.06Z"/><circle class="cls-1" cx="74.57" cy="78.24" r="29.51"/><ellipse cx="194.94" cy="91.57" rx="50.98" ry="13.33"/><ellipse cx="194.94" cy="185.87" rx="34.44" ry="9"/><path class="cls-3" d="M176.75,31.78V45.62c0,3.68,2.67,7.39,3.67,9.74a14.86,14.86,0,0,1,1.19,5.85V89a2.53,2.53,0,0,1-2.53,2.53H168.68A2.53,2.53,0,0,1,166.15,89V61.21a14.86,14.86,0,0,1,1.19-5.85c1-2.35,3.67-6.06,3.67-9.74V31.78Z"/><rect x="191.74" y="91.57" width="6.39" height="101.3"/><path d="M124.92,126.62v-17a8.76,8.76,0,0,0,4.59-1.72,10.48,10.48,0,0,0,5.56-9.69c0-9.59-3.15-21.37-4.15-21.48v-.32H116.78l-.09.44c0,.11-4,11.7-4,21.28a10.7,10.7,0,0,0,5.8,9.72c1.77,1.08,2.41,1.6,4.41,1.76v17c-4,.22-8.23,1.33-8.23,3.32,0,2.18,4.86,3.36,9.52,3.36s9.18-1.18,9.18-3.36C133.38,127.95,128.92,126.84,124.92,126.62Zm-7.58-48.2h13.52a69.21,69.21,0,0,1,3.72,16.89c-.69.36-2.41.82-5.61.82-4.36,0-7.5-2.39-10.2-2.39a15.18,15.18,0,0,0-5.11,1.34A70.41,70.41,0,0,1,117.34,78.42Zm6.77,54.09c-5.2,0-8.82-1.36-8.82-2.58s3.23-2.36,8-2.55l.67,0V109.42h1v17.95l.37,0c4.73.2,7.65,1.48,7.65,2.55S129.31,132.51,124.11,132.51Z"/><ellipse class="cls-1" cx="117.46" cy="119.67" rx="12.96" ry="7.15"/><path d="M23.51,11.65h.6a7,7,0,0,0,2.78,5.28c1.46,1.27,3.1,3.14,3.1,5.4a11.39,11.39,0,0,1-2,5.86h-.62a12.51,12.51,0,0,0,1.51-5,5.61,5.61,0,0,0-4.39-5.54v12a4.18,4.18,0,0,1-4.39,4.08c-1.1,0-2.23-.6-2.23-1.78,0-1.7,2.18-3.31,4.15-3.31a3.54,3.54,0,0,1,1.51.31Z"/></g></g></svg>