<svg xmlns="http://www.w3.org/2000/svg" viewBox="0 0 176.89 291.75"><defs><style>.cls-1,.cls-2,.cls-4,.cls-5,.cls-8,.cls-9{fill:#fff;}.cls-1,.cls-2,.cls-3,.cls-4,.cls-7,.cls-8,.cls-9{stroke:#000;}.cls-1,.cls-3,.cls-4,.cls-6,.cls-7,.cls-8,.cls-9{stroke-miterlimit:10;}.cls-1{stroke-width:3px;}.cls-2,.cls-4,.cls-6,.cls-7{stroke-width:2.83px;}.cls-3,.cls-6,.cls-7{fill:none;}.cls-3,.cls-8{stroke-width:1.42px;}.cls-6{stroke:#fff;}.cls-9{stroke-width:1.42px;}.cls-10{font-size:24px;font-family:HiraSansOldStd-W6-83pv-RKSJ-H, Hiragino Sans Old Std;}</style></defs><title>step2</title><g id="レイヤー_2" data-name="レイヤー 2"><g id="レイヤー_2-2" data-name="レイヤー 2"><path class="cls-1" d="M142.92,146.92l-15.64,10.92L108.8,259.27q-.12.68-.22,1.37c-2.06,15.52,10.33,29.23,26,29.51l6.27.11,8.3-.13c15.68-.25,28.11-14,26-29.51q-.09-.67-.21-1.35L156.46,157.83,143,146.92"/><circle class="cls-2" cx="143.02" cy="146.92" r="29.51"/><circle cx="153.46" cy="139.65" r="3.64"/><circle cx="130.92" cy="139.65" r="3.64"/><path class="cls-3" d="M123.42,132.67s2.25,4.75,7.5,4.75a8.15,8.15,0,0,0,7.25-4.75"/><path class="cls-3" d="M146.42,132.67s2.25,4.75,7.5,4.75a8.15,8.15,0,0,0,7.25-4.75"/><polygon points="135.67 152.42 139.29 153.17 142.42 151.67 145.79 153.17 148.92 151.67 151.42 158.17 146.42 159.42 143.02 157.92 138.17 159.42 133.79 157.29 135.67 152.42"/><path class="cls-4" d="M146.42,166.42s-9.31,3.19,6.06,14.44c7,2.88,18.7-1.87,19.14-5.65.84-7.26,2-16.45-.7-17.2-3.22-.88-5.24,1.92-5.58,3.42-.83,3.58-4.58,4.25-6.33,4.25S149.92,165.75,146.42,166.42Z"/><path class="cls-1" d="M140.83,146.92"/><polygon points="170.34 234.6 168.42 225.92 115.42 225.92 113.68 234.8 119.42 234.78 119.42 274.92 163.42 274.92 163.42 234.63 170.34 234.6"/><g id="酒"><path class="cls-5" d="M131.88,249.4c.17-.22.26-.24.48-.12a19.91,19.91,0,0,1,3.38,2.42.25.25,0,0,1,.12.22.41.41,0,0,1-.12.26l-1.08,1.44c-.12.17-.19.24-.26.24s-.12,0-.22-.12a17,17,0,0,0-3.34-2.62c-.12-.07-.17-.12-.17-.19s0-.14.14-.26Zm0,12a35.72,35.72,0,0,0,2.06-5.88,8.54,8.54,0,0,0,1.34,1.13c.65.43.65.43.46,1.15a36.73,36.73,0,0,1-1.92,5.5,4.19,4.19,0,0,0-.34,1c0,.19-.12.36-.26.36a.88.88,0,0,1-.46-.14,14.3,14.3,0,0,1-1.94-1.22A10.84,10.84,0,0,0,131.9,261.41Zm8.28-15.46c-2.35,0-3.19,0-3.34,0a.54.54,0,0,1-.22,0l-1.18,1.58c-.12.14-.17.22-.24.22s-.12,0-.22-.12a15.22,15.22,0,0,0-3.22-2.62c-.22-.12-.22-.17,0-.43l1.08-1.22c.19-.22.26-.22.46-.12a17.38,17.38,0,0,1,3.26,2.42V244c0-.24,0-.26.26-.26s1,0,3.34,0h8.76c2.38,0,3.19,0,3.34,0s.24,0,.24.26v1.75c0,.24,0,.26-.24.26s-1,0-3.34,0h-1.7v2.45H148c2.3,0,3.12,0,3.26,0s.29,0,.29.26,0,1.22,0,4.66v4.44c0,5.47,0,6.5,0,6.65s0,.26-.29.26h-1.8c-.24,0-.26,0-.26-.26V263.3h-9.31v1.13c0,.22,0,.24-.29.24h-1.78c-.26,0-.29,0-.29-.24s0-1.2,0-6.7V253.8c0-3.94,0-5,0-5.18s0-.26.29-.26.94,0,3.24,0h.48v-2.45Zm3.48,4.54a14.25,14.25,0,0,1-.34,2.83,7.86,7.86,0,0,1-1.37,3c-.22.29-.36.43-.48.43s-.29-.14-.55-.41a6.67,6.67,0,0,0-1.06-.79v2.06h9.31v-2c-.58,0-1.06,0-1.78,0a3.08,3.08,0,0,1-1.8-.36,1.69,1.69,0,0,1-.5-1.44v-3.36Zm-3.79,4.82a6.13,6.13,0,0,0,1.34-2.4,10.82,10.82,0,0,0,.31-2.42h-1.66Zm9.31,5.9v-1.56h-9.31v1.56Zm-4.08-12.82v-2.45h-1.44v2.45Zm2.11,2.09v2.09a1.41,1.41,0,0,0,.14.82c.1.12.31.19.74.19s.67,0,1.08,0v-3.07Z"/><circle class="cls-6" cx="142.6" cy="254.22" r="17.11"/></g><path class="cls-7" d="M103.7,15.13a45.26,45.26,0,0,0-6.7.5A58.69,58.69,0,0,0,58.4,1.42c-31.47,0-57,24.06-57,53.75s25.51,53.75,57,53.75c1.38,0,2.75-.06,4.11-.15a9.7,9.7,0,0,0-1.39,5c0,6,5.67,10.93,12.66,10.93s12.66-4.9,12.66-10.93a10.63,10.63,0,0,0-5.69-9.12A57.56,57.56,0,0,0,97,94.7a45.25,45.25,0,0,0,6.7.5c23.44,0,42.44-17.92,42.44-40S127.14,15.13,103.7,15.13Z"/><ellipse class="cls-7" cx="92.62" cy="132.67" rx="8.34" ry="5.94"/><path class="cls-4" d="M36.79,25.15V39c0,3.68,2.67,7.39,3.67,9.74a14.86,14.86,0,0,1,1.19,5.85V82.42a2.53,2.53,0,0,1-2.53,2.53H28.71a2.53,2.53,0,0,1-2.53-2.53V54.58a14.86,14.86,0,0,1,1.19-5.85C28.38,46.38,31,42.67,31,39V25.15Z"/><path class="cls-8" d="M115,61.6a2.63,2.63,0,0,0,3.37,1.59L129,59.64A3.25,3.25,0,0,0,131.9,61a3.46,3.46,0,0,0,3-3.88,3.64,3.64,0,0,0-1.92-2.92,3.52,3.52,0,1,0-6.51.78l-9.89,3.27A2.64,2.64,0,0,0,115,61.6Z"/><path class="cls-8" d="M114.57,50.16c3.61-.78,8.5,3.7,10.13,11.24s-1.4,13.9-5,14.67c-5.39,1.16-7.33-.17-11.64.76s-6,2.68-10.93,3.75c-3.61.78-8.63-3.49-10.26-11s1.34-13.41,4.95-14.19c4.83-1,8.42,0,11.65-.68C109.31,53.42,108.47,51.47,114.57,50.16Z"/><path class="cls-8" d="M93.12,68.39a2.63,2.63,0,0,0-3.2-1.9L79,69a3.25,3.25,0,0,0-2.76-1.6A3.46,3.46,0,0,0,72.89,71a3.64,3.64,0,0,0,1.63,3.08,3.52,3.52,0,1,0,6.55-.16l10.15-2.32A2.64,2.64,0,0,0,93.12,68.39Z"/><path class="cls-9" d="M97.84,60.28s7.93,2.61,7.93,7.35"/><path class="cls-9" d="M103.42,57.81s7.93,2.61,7.93,7.35"/><path class="cls-9" d="M110.24,56.57s7.93,2.61,7.93,7.35"/><line class="cls-9" x1="97.84" y1="63.91" x2="114.89" y2="55.44"/><line class="cls-9" x1="101.8" y1="66.4" x2="119.29" y2="57.5"/><text class="cls-10" transform="translate(52.42 70.67)">+</text></g></g></svg>