<svg xmlns="http://www.w3.org/2000/svg" viewBox="0 0 272.65 233.49"><defs><style>.cls-1{fill:#fff;stroke:#000;stroke-width:2.83px;}</style></defs><title>step1</title><g id="レイヤー_2" data-name="レイヤー 2"><g id="レイヤー_2-2" data-name="レイヤー 2"><polygon class="cls-1" points="76.73 133.34 102.23 149.08 148.23 127.67 118.52 113.39 76.73 133.34"/><path class="cls-1" d="M29.19,107.62S-5.69,176.63,2.73,216c7.5,16.09,25.41,16.09,32.56,16.09s25.48-5.36,25.48-18.33-16.06-74.66-10-101.48S29.19,107.62,29.19,107.62Z"/><circle class="cls-1" cx="47.23" cy="96.16" r="29.51"/><ellipse class="cls-1" cx="104.23" cy="147.08" rx="12.96" ry="7.15"/><ellipse class="cls-1" cx="193.23" cy="96.8" rx="12.96" ry="7.15"/><ellipse class="cls-1" cx="74.3" cy="131.34" rx="10.28" ry="5.67"/><ellipse class="cls-1" cx="158.21" cy="84.48" rx="10.28" ry="5.67"/><path class="cls-1" d="M195.87,54.34S212.23,78,212.23,137c0,33,27,28.52,27,28.52s32-.67,32-25.61-21.73-96.28-52.5-96.28C194.73,43.65,195.87,54.34,195.87,54.34Z"/><circle class="cls-1" cx="204.97" cy="30.92" r="29.51"/><circle cx="199.5" cy="28.66" r="3.64"/><circle cx="184.23" cy="25.02" r="3.64"/><path d="M259.89,86c0,5-6.17,11-25.67,14.38S209,97,209,97l.95,13.35s8.34,5.25,26.31,5.25c14.13,0,29.38-9.53,28-14.85Z"/><path d="M211.92,107.36S209,130.87,195.87,144c14.63,3.37,43.36,10.25,43.36,10.25s10.25-25.63,4.5-48.26C215.73,102.84,211.92,107.36,211.92,107.36Z"/><polygon points="184.23 34.98 181.98 40.23 197.2 43.65 193.23 36.23 184.23 34.98"/></g></g></svg>