<svg xmlns="http://www.w3.org/2000/svg" viewBox="0 0 289.34 233.49"><defs><style>.cls-1,.cls-2{fill:#fff;stroke:#000;stroke-width:2.83px;}.cls-2{stroke-linecap:round;stroke-linejoin:round;}</style></defs><title>step3</title><g id="レイヤー_2" data-name="レイヤー 2"><g id="レイヤー_2-2" data-name="レイヤー 2"><polygon class="cls-1" points="138.42 103.34 163.92 119.08 209.92 97.67 180.21 83.39 138.42 103.34"/><path class="cls-1" d="M45.88,107.62S11,176.63,19.42,216c7.5,16.09,25.41,16.09,32.56,16.09s25.48-5.36,25.48-18.33-16.06-74.66-10-101.48S45.88,107.62,45.88,107.62Z"/><circle class="cls-1" cx="63.93" cy="96.16" r="29.51"/><ellipse class="cls-1" cx="120.92" cy="147.08" rx="12.96" ry="7.15"/><ellipse class="cls-1" cx="209.92" cy="96.8" rx="12.96" ry="7.15"/><ellipse class="cls-1" cx="90.99" cy="131.34" rx="10.28" ry="5.67"/><ellipse class="cls-1" cx="181.87" cy="82.24" rx="10.28" ry="5.67"/><path class="cls-1" d="M212.57,54.34S228.92,78,228.92,137c0,33,27,28.52,27,28.52s32-.67,32-25.61-21.73-96.28-52.5-96.28C211.42,43.65,212.57,54.34,212.57,54.34Z"/><circle class="cls-1" cx="221.66" cy="30.92" r="29.51"/><circle cx="216.19" cy="28.66" r="3.64"/><circle cx="200.92" cy="25.02" r="3.64"/><path d="M276.59,86c0,5-6.17,11-25.67,14.38S225.67,97,225.67,97l.95,13.35s8.34,5.25,26.31,5.25c14.13,0,29.38-9.53,28-14.85Z"/><path d="M228.62,107.36s-2.95,23.51-16.06,36.62c14.63,3.37,43.36,10.25,43.36,10.25s10.25-25.63,4.5-48.26C232.42,102.84,228.62,107.36,228.62,107.36Z"/><polygon points="200.93 34.98 198.67 40.23 213.89 43.65 209.92 36.23 200.93 34.98"/><path class="cls-1" d="M23.92,14a22.5,22.5,0,0,1,19.57,33.6c1.92,4.32,2.59,10,2.82,12.94-.65-3-4.15-5.59-7.26-7.38A22.5,22.5,0,1,1,23.92,14Z"/><path class="cls-2" d="M46.31,59.52"/><path d="M23.88,46.89c-.89-.89-4.32-4.54-6-6.62s-3.55-4.56-3.55-7.78A4.76,4.76,0,0,1,19,27.62a5,5,0,0,1,4.94,3.77h0a5,5,0,0,1,4.94-3.77,4.76,4.76,0,0,1,4.68,4.87c0,3.22-1.75,5.59-3.55,7.78S24.82,46,23.93,46.89Z"/></g></g></svg>