<svg xmlns="http://www.w3.org/2000/svg" viewBox="0 0 99.33 83.59"><defs><style>.cls-1{fill:none;stroke:#000;}</style></defs><title>アセット 2</title><g id="レイヤー_2" data-name="レイヤー 2"><g id="レイヤー_2-2" data-name="レイヤー 2"><path class="cls-1" d="M11,50.47c.29.22.43.36.65.36s.43-.22.79-.72l3.24-4.32a1.23,1.23,0,0,0,.36-.79.76.76,0,0,0-.36-.65A59.88,59.88,0,0,0,5.54,37.08c-.65-.36-.94-.29-1.44.36L.93,41.26c-.29.36-.43.58-.43.79s.14.36.5.58A51,51,0,0,1,11,50.47Z"/><path class="cls-1" d="M1,25.85a51,51,0,0,1,10,7.85c.29.22.43.36.65.36s.43-.22.79-.72L15.69,29a1.23,1.23,0,0,0,.36-.79.76.76,0,0,0-.36-.65A59.88,59.88,0,0,0,5.54,20.3c-.65-.36-.94-.29-1.44.36L.93,24.48c-.29.36-.43.58-.43.79S.64,25.63,1,25.85Z"/><path class="cls-1" d="M14.4,59.18a25.77,25.77,0,0,1-4-3.38A107,107,0,0,1,4.17,73.44,32.47,32.47,0,0,1,1,79a42.55,42.55,0,0,0,5.83,3.67,2.62,2.62,0,0,0,1.37.43c.43,0,.72-.5.79-1.08a12.63,12.63,0,0,1,1-2.88,110.18,110.18,0,0,0,5.76-16.49C16.34,60.48,16.34,60.48,14.4,59.18Z"/><path class="cls-1" d="M98.83,42.77h-26V29c0-10.3.19-13.54.19-14,0-.72,0-.61-.84-.61-.43,0-2.86.32-9.77.32H59.83V7.1c3,0,4.89.12,5.2.12.65,0,.8-.07.8-.79V1.17c0-.72,0-.66-.62-.66-.43,0-2.78.27-9.91.27H39C32,.77,19.25.5,18.81.5c-.72,0-1-.06-1,.66V6.28s.23.83.33.86.38.42.74.42,13,.21,20.1.21h3.82v7H41.61c-6.91,0-9.29-.32-9.72-.32-.79,0-1,0-1,.7,0,.5,0,3.65,0,15.46V42.42c0,16.49,0,19.85,0,20.36s.24,1,1,1h5.33c.79,0,.62-.61.62-1.26V59.77h28V72.3c0,.72.26,1.47,1,1.47h5.4c.79,0,.86-.08.86-.8,0-.38-.11-11.2-.14-24.2h25.9Zm-33-22V29.9c-2,.07-2.07.07-3.15.07-1.3,0-2-.22-2.33-.58a4.1,4.1,0,0,1-.53-2.45V20.77Zm-17-13h4v7h-4Zm-11,13H43A30.45,30.45,0,0,1,42,28a17.83,17.83,0,0,1-4.16,7.15Zm28,27.41v5.59h-28V35.87a18.52,18.52,0,0,1,3.29,2.38c.79.79,1.29,1.22,1.72,1.22s.82-.43,1.47-1.3a23.39,23.39,0,0,0,4.12-9,42.58,42.58,0,0,0,1-8.45h3.38v10a5.14,5.14,0,0,0,2,4.32c.79.65,2.66,1.08,5.54,1.08,2.16,0,3.47,0,5.47-.14v6.76h-6v6h6Z"/></g></g></svg>