<svg width="261" height="230" viewBox="0 0 261 230" fill="none" xmlns="http://www.w3.org/2000/svg">
<rect width="200.2" height="200.5" fill="black" fill-opacity="0" transform="translate(20 9.5)"/>
<rect width="200.2" height="200.5" fill="black" fill-opacity="0" transform="translate(20 9.5)"/>
<path d="M120.2 209.5C175.428 209.5 220.2 164.728 220.2 109.5C220.2 54.2715 175.428 9.5 120.2 9.5C64.9715 9.5 20.2 54.2715 20.2 109.5C20.2 164.728 64.9715 209.5 120.2 209.5Z" fill="url(#paint0_linear)"/>
<g filter="url(#filter0_d)">
<path d="M219.8 109.1C219.8 166 175.1 209.3 120.1 209.3C64.9 209.3 20.1 164.1 20.1 109.3C20.6 92.2 24.2 79.6 27.1 72.1C29.3 66.4 34.8 61.1 40.7 62.4C58.4 66.3 104.8 109.3 219.8 109.1Z" fill="url(#paint1_linear)"/>
</g>
<g filter="url(#filter1_d)">
<path d="M220.2 109.988C220.2 165.188 175.4 209.989 120.2 209.989C65 209.989 20.2 165.188 20.2 109.988L20 109.788C27.1 72.5884 72 43 72 43C77.5 39.5 81 39.5 87 43C87 43 120.2 93.5 219.8 109.588" fill="url(#paint2_linear)"/>
</g>
<g filter="url(#filter2_d)">
<path d="M220.2 109.5C220.2 164.7 175.4 209.5 120.2 209.5C65 209.5 20.2 164.7 20.2 109.5L20 109.3C20 153.7 115.8 141 194 73.3C200.1 68 208.5 67.5 211.6 74.9C220.7 96.5 219.9 109.3 219.9 109.3" fill="url(#paint3_linear)"/>
</g>
<defs>
<filter id="filter0_d" x="10.1" y="52.2016" width="219.7" height="167.098" filterUnits="userSpaceOnUse" color-interpolation-filters="sRGB">
<feFlood flood-opacity="0" result="BackgroundImageFix"/>
<feColorMatrix in="SourceAlpha" type="matrix" values="0 0 0 0 0 0 0 0 0 0 0 0 0 0 0 0 0 0 255 0"/>
<feOffset/>
<feGaussianBlur stdDeviation="5"/>
<feColorMatrix type="matrix" values="0 0 0 0 0 0 0 0 0 0 0 0 0 0 0 0 0 0 0.24 0"/>
<feBlend mode="normal" in2="BackgroundImageFix" result="effect1_dropShadow"/>
<feBlend mode="normal" in="SourceGraphic" in2="effect1_dropShadow" result="shape"/>
</filter>
<filter id="filter1_d" x="0" y="0.375" width="260.2" height="229.614" filterUnits="userSpaceOnUse" color-interpolation-filters="sRGB">
<feFlood flood-opacity="0" result="BackgroundImageFix"/>
<feColorMatrix in="SourceAlpha" type="matrix" values="0 0 0 0 0 0 0 0 0 0 0 0 0 0 0 0 0 0 255 0"/>
<feOffset dx="10" dy="-10"/>
<feGaussianBlur stdDeviation="15"/>
<feColorMatrix type="matrix" values="0 0 0 0 0 0 0 0 0 0 0 0 0 0 0 0 0 0 0.24 0"/>
<feBlend mode="normal" in2="BackgroundImageFix" result="effect1_dropShadow"/>
<feBlend mode="normal" in="SourceGraphic" in2="effect1_dropShadow" result="shape"/>
</filter>
<filter id="filter2_d" x="10" y="59.3286" width="220.2" height="160.171" filterUnits="userSpaceOnUse" color-interpolation-filters="sRGB">
<feFlood flood-opacity="0" result="BackgroundImageFix"/>
<feColorMatrix in="SourceAlpha" type="matrix" values="0 0 0 0 0 0 0 0 0 0 0 0 0 0 0 0 0 0 255 0"/>
<feOffset/>
<feGaussianBlur stdDeviation="5"/>
<feColorMatrix type="matrix" values="0 0 0 0 0 0 0 0 0 0 0 0 0 0 0 0 0 0 0.24 0"/>
<feBlend mode="normal" in2="BackgroundImageFix" result="effect1_dropShadow"/>
<feBlend mode="normal" in="SourceGraphic" in2="effect1_dropShadow" result="shape"/>
</filter>
<linearGradient id="paint0_linear" x1="120.2" y1="9.5" x2="120.2" y2="209.5" gradientUnits="userSpaceOnUse">
<stop stop-color="#9ADFE3" stop-opacity="0.56"/>
<stop offset="1" stop-color="#9ADFE3" stop-opacity="0.12"/>
</linearGradient>
<linearGradient id="paint1_linear" x1="33.5" y1="53.5" x2="41.5" y2="80.5" gradientUnits="userSpaceOnUse">
<stop stop-color="#219FB2"/>
<stop offset="1" stop-color="#0D5661"/>
</linearGradient>
<linearGradient id="paint2_linear" x1="166" y1="98.5" x2="74" y2="150.5" gradientUnits="userSpaceOnUse">
<stop stop-color="#219FB2"/>
<stop offset="1" stop-color="#0D5661"/>
</linearGradient>
<linearGradient id="paint3_linear" x1="120" y1="84" x2="161" y2="210" gradientUnits="userSpaceOnUse">
<stop stop-color="#219FB2"/>
<stop offset="1" stop-color="#0D5661"/>
</linearGradient>
</defs>
</svg>
